<?xml version="1.0" encoding="utf-8"?>
<!-- Generator: Adobe Illustrator 19.0.0, SVG Export Plug-In . SVG Version: 6.00 Build 0)  -->
<svg version="1.1" id="Layer_1" xmlns="http://www.w3.org/2000/svg" xmlns:xlink="http://www.w3.org/1999/xlink" x="0px" y="0px"
	 viewBox="0 0 39 37.2" style="enable-background:new 0 0 39 37.2;" xml:space="preserve">
<style type="text/css">
	.st0{fill:#B4054D;}
	.st1{fill:#5B072D;}
</style>
<g id="XMLID_32_">
	<path id="XMLID_2_" class="st0" d="M26.4,24.1c3.2-2.2,5.3-5.8,5.3-10C31.6,7.4,26.2,2,19.5,2S7.4,7.4,7.4,14.1
		c0,4.2,2.1,7.8,5.3,10C6.5,25.9,2.1,30.2,2.1,35.2h34.8C36.9,30.2,32.6,25.9,26.4,24.1z"/>
	<path id="XMLID_3_" class="st1" d="M39,37.2H0v-1.9c0-4.7,3.6-9.3,8.9-11.8c-2.2-2.6-3.5-5.9-3.5-9.3C5.4,6.3,11.7,0,19.5,0
		c7.8,0,14.1,6.3,14.1,14.1c0,3.5-1.2,6.8-3.5,9.3C35.5,26,39,30.6,39,35.3V37.2z M4.5,33.2h30.1c-1.1-3-4.4-5.9-8.8-7.2l-4-1.2
		l3.5-2.4c2.8-1.9,4.4-5,4.4-8.4C29.6,8.5,25.1,4,19.5,4S9.4,8.5,9.4,14.1c0,3.3,1.6,6.5,4.4,8.4l3.5,2.4l-4,1.2
		C8.9,27.3,5.5,30.2,4.5,33.2z"/>
</g>
</svg>
