<?xml version="1.0" encoding="utf-8"?>
<!-- Generator: Adobe Illustrator 19.0.0, SVG Export Plug-In . SVG Version: 6.00 Build 0)  -->
<svg version="1.1" id="Layer_1" xmlns="http://www.w3.org/2000/svg" xmlns:xlink="http://www.w3.org/1999/xlink" x="0px" y="0px"
	 viewBox="0 0 100 97.5" style="enable-background:new 0 0 100 97.5;" xml:space="preserve">
<style type="text/css">
	.st0{fill:#FFFFFF;}
</style>
<path id="XMLID_18_" class="st0" d="M100,54.3c-0.6,3.1-1,6.3-1.9,9.3c-4.8,16.1-15.2,27.2-30.9,33.3c-3.5,1.4-4.7,0.5-4.7-3.2
	c0-3.9,0-7.8,0-11.7c0-3.5-0.6-6.9-3.2-9.8c1.8-0.4,3.5-0.7,5.2-1c10.6-2.4,16.2-9,17.2-19.9c0.5-6.1-0.3-11.8-4.4-16.7
	c-0.3-0.4-0.3-1.2-0.2-1.8c0.9-3.4,0.6-6.8-0.2-10.2c-0.4-1.7-1.4-2.4-2.9-1.8c-3.3,1.2-6.5,2.4-9.6,4c-1.4,0.7-2.5,1-4,0.6
	c-7.1-1.7-14.3-1.5-21.5,0c-0.8,0.2-1.9-0.1-2.7-0.4c-3.2-1.3-6.2-3-9.4-4.1c-2.7-0.9-3.4-0.5-3.8,2.4c-0.4,3-0.4,6.1-0.2,9
	c0.1,1.3,0,2.2-0.8,3.1c-6.8,8-4.5,26.2,4.6,32c3.9,2.5,8.1,3.8,12.6,4.4c0.4,0.1,0.8,0.1,1,0.2c-0.8,2.1-1.6,4.2-2.4,6.2
	c-0.2,0.4-0.7,0.7-1.1,0.9c-5.1,2.1-9.9,0.5-13.2-4c-1.2-1.8-3-3.2-4.6-4.7c-0.4-0.4-1.1-0.6-1.6-0.6c-1.3,0-2.6,0.2-3.9,0.3
	c0.7,0.9,1.5,1.8,2.2,2.7c1.5,1.9,3.5,3.5,4.3,5.6c2.4,6.4,8.3,8.6,15,7.8c0.8-0.1,1.5-0.2,2.6-0.4c0,3.4,0.1,6.7-0.1,9.9
	c-0.1,1.4-1.7,2.2-3.4,1.6c-2.3-0.8-4.5-1.7-6.6-2.8C8.3,84.9-2.6,63.8,0.5,42.8C3.8,21.2,20.3,4.3,41.7,0.7c1.3-0.2,2.7-0.5,4-0.7
	c2.9,0,5.7,0,8.6,0c0.4,0.1,0.9,0.3,1.3,0.3c20.4,2.4,37,16.5,42.5,36.2c0.8,3,1.3,6.1,1.9,9.1C100,48.5,100,51.4,100,54.3z"/>
</svg>
