<?xml version="1.0" encoding="utf-8"?>
<!-- Generator: Adobe Illustrator 19.0.0, SVG Export Plug-In . SVG Version: 6.00 Build 0)  -->
<svg version="1.1" id="Layer_1" xmlns="http://www.w3.org/2000/svg" xmlns:xlink="http://www.w3.org/1999/xlink" x="0px" y="0px"
	 viewBox="0 0 37.5 37.2" style="enable-background:new 0 0 37.5 37.2;" xml:space="preserve">
<style type="text/css">
	.st0{fill:#009980;}
	.st1{fill:#004C3D;}
</style>
<g id="XMLID_110_">
	<path id="XMLID_2_" class="st0" d="M31.8,22.5c3.3-3.3,4.5-7.8,3-12.1l-6.2,6.2l-6.3-1.7l-1.7-6.3l6.2-6.2C23.2,1.6,18,2,14.7,5.3
		c-3,3-3.9,7.3-3.2,11l-8.5,8.5l9.4,9.4l8.6-8.6C24.6,26.4,28.9,25.5,31.8,22.5z"/>
	<path id="XMLID_3_" class="st1" d="M12.3,37.2L0,24.9l9.3-9.3c-0.4-4.4,1-8.8,4-11.7c4-4,10-4.4,14-3.5L31,1.2l-8.1,8.1l1.1,4
		l4,1.1l7.7-7.7l1.1,3.1c1.7,5,0.4,10.3-3.5,14.3l0,0c-3,3-7.3,4.4-11.6,4L12.3,37.2z M5.8,24.9l6.5,6.5l7.9-7.9l1.1,0.2
		c3.4,0.6,6.9-0.4,9.1-2.7c1.8-1.8,2.8-4,3-6.3l-4.2,4.2l-8.6-2.3L18.3,8l3.8-3.8c-2.2,0.2-4.4,1-6,2.6c-2.7,2.7-3.1,6.5-2.7,9.2
		l0.2,1.1L5.8,24.9z"/>
</g>
</svg>
