<?xml version="1.0" encoding="utf-8"?>
<!-- Generator: Adobe Illustrator 19.0.0, SVG Export Plug-In . SVG Version: 6.00 Build 0)  -->
<svg version="1.1" id="Layer_1" xmlns="http://www.w3.org/2000/svg" xmlns:xlink="http://www.w3.org/1999/xlink" x="0px" y="0px"
	 viewBox="0 0 41.5 36.9" style="enable-background:new 0 0 41.5 36.9;" xml:space="preserve">
<style type="text/css">
	.st0{fill:#FEB90C;}
	.st1{fill:#A06D08;}
</style>
<g id="XMLID_6_">
	<path id="XMLID_2_" class="st0" d="M22.7,34.9H5.1c-2.8,0-3.9-2.7-2.6-6L11.3,8c1.4-3.3,4.8-6,7.6-6h17.5c2.8,0,3.9,2.7,2.6,6
		l-8.7,20.8C28.9,32.2,25.5,34.9,22.7,34.9z"/>
	<path id="XMLID_3_" class="st1" d="M22.7,36.9H5.1c-1.8,0-3.3-0.8-4.2-2.2c-1.1-1.7-1.2-4.1-0.2-6.6L9.4,7.2
		C11.1,3.2,15.3,0,18.9,0h17.5c1.8,0,3.3,0.8,4.2,2.2c1.1,1.7,1.2,4.1,0.2,6.6l-8.7,20.8C30.4,33.7,26.3,36.9,22.7,36.9z M18.9,4
		c-1.8,0-4.6,2-5.7,4.8L4.4,29.6c-0.6,1.4-0.5,2.5-0.2,2.9c0.1,0.1,0.2,0.4,0.9,0.4h17.5c1.8,0,4.6-2,5.7-4.8l8.7-20.8
		c0.6-1.4,0.5-2.5,0.2-2.9C37.2,4.3,37,4,36.4,4H18.9z"/>
</g>
</svg>
